<mxfile host="Electron" modified="2024-07-27T05:59:35.021Z" agent="Mozilla/5.0 (Windows NT 10.0; Win64; x64) AppleWebKit/537.36 (KHTML, like Gecko) draw.io/24.6.4 Chrome/124.0.6367.207 Electron/30.0.6 Safari/537.36" etag="z2kUwyOBq6NDuBfoodx7" version="24.6.4" type="device">
  <diagram name="第 1 页" id="ab6418ZZghVGEIYWvF19">
    <mxGraphModel dx="880" dy="532" grid="1" gridSize="10" guides="1" tooltips="1" connect="1" arrows="1" fold="1" page="1" pageScale="1" pageWidth="827" pageHeight="1169" math="0" shadow="0">
      <root>
        <mxCell id="0" />
        <mxCell id="1" parent="0" />
        <mxCell id="puJVeZGQ8Uqeds_e6Kwe-1" value="网络管理类" style="text;html=1;align=left;verticalAlign=middle;resizable=0;points=[];autosize=1;strokeColor=none;fillColor=none;fontSize=22;" vertex="1" parent="1">
          <mxGeometry x="60" y="70" width="130" height="40" as="geometry" />
        </mxCell>
        <mxCell id="puJVeZGQ8Uqeds_e6Kwe-2" value="初始化网络&lt;div style=&quot;font-size: 22px;&quot;&gt;连接到服务器&lt;/div&gt;&lt;div style=&quot;font-size: 22px;&quot;&gt;获取客户端socket&lt;/div&gt;&lt;div style=&quot;font-size: 22px;&quot;&gt;开启线程&lt;/div&gt;" style="text;html=1;align=left;verticalAlign=middle;resizable=0;points=[];autosize=1;strokeColor=none;fillColor=none;fontSize=22;" vertex="1" parent="1">
          <mxGeometry x="60" y="130" width="200" height="120" as="geometry" />
        </mxCell>
        <mxCell id="puJVeZGQ8Uqeds_e6Kwe-3" value="网络接受线程" style="text;html=1;align=left;verticalAlign=middle;resizable=0;points=[];autosize=1;strokeColor=none;fillColor=none;fontSize=22;" vertex="1" parent="1">
          <mxGeometry x="60" y="380" width="160" height="40" as="geometry" />
        </mxCell>
        <mxCell id="puJVeZGQ8Uqeds_e6Kwe-4" value="&lt;span style=&quot;font-size: 22px;&quot;&gt;SDLNet_TCP_Recv&lt;/span&gt;&lt;div&gt;&lt;span style=&quot;font-size: 22px;&quot;&gt;并且把解析收到的消息&lt;/span&gt;&lt;/div&gt;&lt;div&gt;&lt;span style=&quot;font-size: 22px;&quot;&gt;转换成游戏动作&lt;/span&gt;&lt;/div&gt;&lt;div&gt;&lt;span style=&quot;font-size: 22px;&quot;&gt;更新网络管理类种注册了的游戏对象&lt;/span&gt;&lt;/div&gt;" style="text;html=1;align=left;verticalAlign=middle;resizable=0;points=[];autosize=1;strokeColor=none;fillColor=none;fontSize=22;" vertex="1" parent="1">
          <mxGeometry x="60" y="430" width="380" height="120" as="geometry" />
        </mxCell>
        <mxCell id="puJVeZGQ8Uqeds_e6Kwe-5" value="主循环逻辑" style="text;html=1;align=left;verticalAlign=middle;resizable=0;points=[];autosize=1;strokeColor=none;fillColor=none;fontSize=22;" vertex="1" parent="1">
          <mxGeometry x="400" y="70" width="130" height="40" as="geometry" />
        </mxCell>
        <mxCell id="puJVeZGQ8Uqeds_e6Kwe-6" value="&lt;div style=&quot;font-size: 22px;&quot;&gt;如果发送游戏状态改变,发送给服务器&lt;/div&gt;&lt;div style=&quot;font-size: 22px;&quot;&gt;&lt;span style=&quot;font-size: 22px;&quot;&gt;SDLNet_TCP_Send&lt;/span&gt;&lt;br style=&quot;font-size: 22px;&quot;&gt;&lt;/div&gt;" style="text;html=1;align=left;verticalAlign=middle;resizable=0;points=[];autosize=1;strokeColor=none;fillColor=none;fontSize=22;" vertex="1" parent="1">
          <mxGeometry x="400" y="130" width="380" height="70" as="geometry" />
        </mxCell>
        <mxCell id="puJVeZGQ8Uqeds_e6Kwe-7" value="游戏服务器" style="text;html=1;align=left;verticalAlign=middle;resizable=0;points=[];autosize=1;strokeColor=none;fillColor=none;fontSize=22;" vertex="1" parent="1">
          <mxGeometry x="480" y="360" width="130" height="40" as="geometry" />
        </mxCell>
        <mxCell id="puJVeZGQ8Uqeds_e6Kwe-8" value="接受来自各个客户端的消息&lt;div&gt;广播给所有客户端&lt;/div&gt;" style="text;html=1;align=left;verticalAlign=middle;resizable=0;points=[];autosize=1;strokeColor=none;fillColor=none;fontSize=22;" vertex="1" parent="1">
          <mxGeometry x="480" y="395" width="290" height="70" as="geometry" />
        </mxCell>
        <mxCell id="puJVeZGQ8Uqeds_e6Kwe-9" value="消息格式：&lt;div&gt;id:游戏客户端ID&lt;/div&gt;&lt;div&gt;type:消息类型(init, )&lt;/div&gt;&lt;div&gt;state:状态(Idle, Moving, gameover, shooted)&lt;/div&gt;&lt;div&gt;event: 动作(left_press, right_press, none....)&lt;br&gt;&lt;/div&gt;" style="text;html=1;align=left;verticalAlign=middle;resizable=0;points=[];autosize=1;strokeColor=none;fillColor=none;fontSize=22;" vertex="1" parent="1">
          <mxGeometry x="60" y="605" width="450" height="150" as="geometry" />
        </mxCell>
        <mxCell id="puJVeZGQ8Uqeds_e6Kwe-10" value="新启动的客户端，根据提示，设置用户名&lt;div&gt;根据默认位置和默认状态，在本地创建本地角色&lt;div&gt;给服务器发送&lt;div&gt;init 消息&lt;/div&gt;&lt;div&gt;包含客户端的用户名称&lt;/div&gt;&lt;div&gt;和初始位置、初始状态&lt;/div&gt;&lt;/div&gt;&lt;/div&gt;" style="text;html=1;align=left;verticalAlign=middle;resizable=0;points=[];autosize=1;strokeColor=none;fillColor=none;fontSize=22;" vertex="1" parent="1">
          <mxGeometry x="50" y="800" width="490" height="170" as="geometry" />
        </mxCell>
        <mxCell id="puJVeZGQ8Uqeds_e6Kwe-11" value="服务器接收到init消息&lt;div&gt;将消息转发给其他客户端&lt;/div&gt;" style="text;html=1;align=left;verticalAlign=middle;resizable=0;points=[];autosize=1;strokeColor=none;fillColor=none;fontSize=22;" vertex="1" parent="1">
          <mxGeometry x="50" y="990" width="270" height="70" as="geometry" />
        </mxCell>
        <mxCell id="puJVeZGQ8Uqeds_e6Kwe-12" value="客户端接收到来自服务器的init消息&lt;div&gt;根据位置信息和状态信息，创建一个新的角色对象，加入到对象列表中&lt;/div&gt;" style="text;html=1;align=left;verticalAlign=middle;resizable=0;points=[];autosize=1;strokeColor=none;fillColor=none;fontSize=22;" vertex="1" parent="1">
          <mxGeometry x="50" y="1080" width="710" height="70" as="geometry" />
        </mxCell>
      </root>
    </mxGraphModel>
  </diagram>
</mxfile>
